<svg width="32" height="26" viewBox="0 0 32 26" fill="none" xmlns="http://www.w3.org/2000/svg">
<path d="M30.6668 22.3333C30.6668 23.0406 30.3859 23.7189 29.8858 24.219C29.3857 24.719 28.7074 25 28.0002 25H4.00016C3.29292 25 2.61464 24.719 2.11454 24.219C1.61445 23.7189 1.3335 23.0406 1.3335 22.3333V7.66667C1.3335 6.95942 1.61445 6.28115 2.11454 5.78105C2.61464 5.28095 3.29292 5 4.00016 5H9.3335L12.0002 1H20.0002L22.6668 5H28.0002C28.7074 5 29.3857 5.28095 29.8858 5.78105C30.3859 6.28115 30.6668 6.95942 30.6668 7.66667V22.3333Z" stroke="#43BE8D" stroke-width="2" stroke-linecap="round" stroke-linejoin="round"/>
<path d="M15.9998 19.6667C18.9454 19.6667 21.3332 17.2789 21.3332 14.3333C21.3332 11.3878 18.9454 9 15.9998 9C13.0543 9 10.6665 11.3878 10.6665 14.3333C10.6665 17.2789 13.0543 19.6667 15.9998 19.6667Z" stroke="#43BE8D" stroke-width="2" stroke-linecap="round" stroke-linejoin="round"/>
</svg>
