<svg width="57" height="56" viewBox="0 0 57 56" fill="none" xmlns="http://www.w3.org/2000/svg">
<g filter="url(#filter0_d)">
<path d="M44.0778 37.6897C40.9034 40.3265 36.7854 41.9999 32.3027 41.9999C25.6323 41.9999 19.7768 38.3858 16.6025 33.1124L17.7909 27.7249L23.0585 26.7632C24.281 30.6444 27.97 33.4921 32.3027 33.4921C34.4045 33.4921 36.3564 32.8382 37.965 31.678L43.0268 32.4374L44.0778 37.6897Z" fill="white"/>
<path d="M44.0776 37.6899L43.0266 32.4376L37.9648 31.6782C36.3562 32.8384 34.4043 33.4923 32.3025 33.4923V42.0001C36.7853 42.0001 40.9032 40.3267 44.0776 37.6899Z" fill="white"/>
<path d="M22.6508 24C22.6508 24.9702 22.8009 25.8983 23.0583 26.7632L16.6024 33.1125C14.9938 30.4546 14 27.3327 14 24C14 20.6671 14.9938 17.5453 16.6024 14.8875L21.7838 15.7645L23.0583 21.2367C22.8009 22.1014 22.6508 23.0296 22.6508 24Z" fill="white"/>
<path d="M50.6049 24C50.6049 29.4843 48.024 34.3992 44.0775 37.6898L37.9647 31.6781C39.2087 30.7921 40.2597 29.6109 40.946 28.2188H32.3024C31.7018 28.2188 31.23 27.7546 31.23 27.1641V20.8359C31.23 20.2452 31.7018 19.7812 32.3024 19.7812H49.2322C49.747 19.7812 50.1974 20.1398 50.2832 20.646C50.4977 21.743 50.6049 22.882 50.6049 24Z" fill="white"/>
<path d="M40.9462 28.2188C40.2599 29.6109 39.2088 30.7921 37.9649 31.6781L44.0776 37.6898C48.0241 34.3992 50.605 29.4844 50.605 24C50.605 22.882 50.4978 21.743 50.2832 20.646C50.1975 20.1398 49.747 19.7812 49.2323 19.7812H32.3025V28.2188H40.9462Z" fill="white"/>
<path d="M44.378 11.0273C44.3995 11.3226 44.2708 11.5969 44.0778 11.8077L39.4878 16.3007C39.1233 16.6804 38.5227 16.7226 38.0938 16.4062C36.3992 15.1617 34.4045 14.5078 32.3027 14.5078C27.97 14.5078 24.281 17.3554 23.0585 21.2367L16.6025 14.8875C19.7768 9.61406 25.6323 6 32.3027 6C36.5709 6 40.7318 7.54688 43.992 10.2468C44.2279 10.4367 44.3566 10.732 44.378 11.0273Z" fill="white"/>
<path d="M38.0935 16.4062C38.5225 16.7227 39.123 16.6804 39.4876 16.3007L44.0775 11.8077C44.2706 11.5969 44.3993 11.3227 44.3778 11.0273C44.3563 10.7319 44.2277 10.4367 43.9917 10.2468C40.7317 7.54688 36.5707 6 32.3025 6V14.5078C34.4044 14.5078 36.399 15.1617 38.0935 16.4062Z" fill="white"/>
</g>
<defs>
<filter id="filter0_d" x="0" y="0" width="56.605" height="56.0001" filterUnits="userSpaceOnUse" color-interpolation-filters="sRGB">
<feFlood flood-opacity="0" result="BackgroundImageFix"/>
<feColorMatrix in="SourceAlpha" type="matrix" values="0 0 0 0 0 0 0 0 0 0 0 0 0 0 0 0 0 0 127 0" result="hardAlpha"/>
<feOffset dx="-4" dy="4"/>
<feGaussianBlur stdDeviation="5"/>
<feComposite in2="hardAlpha" operator="out"/>
<feColorMatrix type="matrix" values="0 0 0 0 0 0 0 0 0 0 0 0 0 0 0 0 0 0 0.15 0"/>
<feBlend mode="normal" in2="BackgroundImageFix" result="effect1_dropShadow"/>
<feBlend mode="normal" in="SourceGraphic" in2="effect1_dropShadow" result="shape"/>
</filter>
</defs>
</svg>
