<svg width="168" height="190" viewBox="0 0 168 190" fill="none" xmlns="http://www.w3.org/2000/svg">
<path d="M48.7283 78.0697L48.7284 78.0697C50.1918 77.1074 52.8188 75.7952 55.5936 74.6157C58.3689 73.4361 61.2405 72.4113 63.1894 72.0054C64.4226 71.7504 65.6331 72.5417 65.8899 73.7757C66.1468 75.0106 65.3546 76.2197 64.12 76.4766L64.1199 76.4766C62.4467 76.8249 59.8499 77.7693 57.3823 78.8178C54.914 79.8668 52.5133 81.0464 51.2368 81.8854L51.2366 81.8855C50.8499 82.14 50.4153 82.2612 49.9852 82.2612C49.2408 82.2612 48.5132 81.8987 48.0752 81.232L48.075 81.2318C47.3822 80.1781 47.6748 78.7623 48.7283 78.0697Z" fill="white" stroke="#43BE8D"/>
<mask id="path-2-inside-1" fill="white">
<path d="M156.797 92.4886C159.538 87.2265 161.117 81.2987 161.47 74.7956C161.855 67.7122 160.787 60.7411 158.372 54.1193C166.681 43.0529 169.563 29.0593 166.27 15.4594C165.231 11.1651 161.747 7.90322 157.393 7.14878C144.145 4.85356 130.79 8.31068 120.467 16.6414C111.712 12.9668 102.108 10.761 92.1075 10.2177C82.1051 9.67445 72.3189 10.8263 63.2186 13.5312C53.8577 4.13104 40.9526 -0.749966 27.5382 0.0939026C23.1289 0.371852 19.3114 3.23707 17.8122 7.3937C13.0659 20.5564 14.4145 34.7797 21.476 46.6815C18.3577 53.0027 16.5405 59.8167 16.1553 66.9002C15.6064 76.9988 18.0839 85.9863 23.5189 93.6119C24.4103 94.864 26.1489 95.1557 27.4006 94.2632C28.6523 93.3711 28.9439 91.6333 28.0518 90.3812C23.3675 83.808 21.2352 76.0091 21.7139 67.2015C23.3638 36.8349 54.8129 13.7647 91.8055 15.7752C101.634 16.3092 111.04 18.5521 119.53 22.2957C119.702 22.3952 119.883 22.4746 120.07 22.5344C125.447 24.9569 130.448 27.9854 134.946 31.5705C134.994 31.611 135.043 31.651 135.093 31.6878C136.285 32.643 137.441 33.6368 138.559 34.6695C144.898 40.5258 149.608 47.2422 152.521 54.4318C152.571 54.6084 152.638 54.781 152.723 54.9461C155.174 61.1968 156.276 67.7956 155.912 74.4935C155.523 81.6471 153.52 87.9001 149.934 93.2175C149.864 93.3084 149.798 93.4019 149.739 93.501C146.269 98.5349 141.365 102.72 135.039 106.018C133.165 106.995 131.177 107.886 129.084 108.692C129.075 108.695 129.066 108.697 129.056 108.701C129.039 108.707 129.023 108.715 129.006 108.722C117.61 113.091 103.067 114.915 86.4677 114.013C67.7292 112.995 52.1192 108.858 40.8976 101.986C40.8268 101.936 40.7533 101.888 40.6765 101.845C40.6709 101.842 40.6653 101.84 40.6594 101.837C39.1854 100.924 37.7849 99.9651 36.4675 98.9576C35.2466 98.0235 33.4999 98.257 32.5658 99.4779C31.6321 100.699 31.8648 102.445 33.0861 103.379C33.9585 104.046 34.8651 104.692 35.7984 105.32C35.1401 107.27 34.9074 109.348 35.1297 111.323C34.6317 111.812 34.1715 112.347 33.76 112.928C31.8637 115.606 30.4231 118.311 29.4438 121.015C17.1283 133.829 6.84044 148.193 1.17346 160.503C-0.640083 164.444 0.823514 169.032 4.57788 171.175C5.44215 171.668 6.39587 172.147 7.41489 172.605C7.77597 173.063 8.18343 173.49 8.64247 173.872C10.1402 175.119 12.0369 175.805 13.9836 175.805C14.6987 175.805 15.4008 175.712 16.0774 175.538C20.9216 176.768 26.6153 177.684 33.0527 178.268C33.0646 180.069 33.4898 181.893 34.3812 183.595C36.4066 187.465 40.38 189.869 44.7503 189.869C46.6247 189.869 48.4976 189.407 50.1661 188.534C55.9678 185.497 60.6083 182.137 64.5033 178.64C68.5308 178.419 72.5334 178.103 76.3012 177.706C76.1549 180.536 77.0259 183.426 78.9738 185.773C81.2033 188.46 84.4856 190.001 87.9791 190.001C90.5003 190.001 92.9028 189.208 94.9275 187.71C96.1629 186.795 96.4226 185.052 95.5079 183.816C94.5931 182.581 92.8497 182.321 91.6151 183.236C90.5564 184.02 89.2991 184.434 87.9791 184.434C86.1467 184.434 84.4259 183.626 83.2577 182.219C81.0998 179.618 81.4597 175.746 84.0604 173.588C86.0053 171.975 87.5483 170.096 88.6783 167.997C93.717 167.226 98.4933 165.631 102.825 163.352C102.401 166.63 101.382 170.449 99.204 174.325C98.4514 175.665 98.9271 177.362 100.267 178.114C100.698 178.357 101.166 178.472 101.628 178.472C102.601 178.472 103.546 177.96 104.057 177.051C107.694 170.578 108.605 164.252 108.648 159.677C116.857 153.527 122.661 144.572 124.289 134.091C136.404 129.328 151.875 119.818 160.718 112.956C165.812 109.003 166.741 101.642 162.789 96.5469C161.244 94.559 159.133 93.1651 156.797 92.4886ZM39.9684 25.0192C33.721 29.6438 28.5973 35.0458 24.7168 41.0015C19.3905 30.2323 20.2429 20.0339 21.7621 13.6329C27.5508 15.2427 34.7987 18.2983 41.2557 24.0904C40.823 24.3954 40.3933 24.7045 39.9684 25.0192ZM46.0807 20.9721C38.6722 13.9057 30.2183 10.2393 23.4974 8.33888C24.4162 6.7903 26.0472 5.76534 27.8885 5.64919C38.7635 4.96415 49.2413 8.54558 57.2558 15.5637C53.3605 17.0689 49.6224 18.8761 46.0807 20.9721ZM136.697 25.8957C133.404 23.4287 129.883 21.227 126.174 19.3084C134.903 13.1998 145.711 10.7747 156.442 12.6343C158.261 12.949 159.771 14.145 160.516 15.7842C153.629 16.9449 144.828 19.6736 136.697 25.8957ZM155.765 48.1224C152.553 41.7812 148.045 35.8559 142.335 30.5815C141.947 30.2227 141.553 29.8687 141.157 29.5184C148.203 24.4603 155.739 22.2082 161.668 21.2348C162.484 27.7631 162.227 37.9942 155.765 48.1224ZM33.632 127.073C34.1151 123.517 35.6864 119.84 38.3033 116.144C39.2489 114.809 40.6583 113.921 42.2714 113.645C42.6203 113.585 42.9698 113.556 43.3168 113.556C44.5744 113.556 45.7987 113.943 46.8463 114.685C48.1826 115.631 49.0699 117.041 49.3456 118.654C49.6213 120.268 49.2521 121.892 48.3062 123.229C46.2551 126.126 45.3638 128.738 45.8621 130.396C45.9404 130.658 46.057 130.906 46.208 131.134C47.1305 132.526 49.5048 133.357 51.8616 133.108C53.49 132.935 55.0879 133.405 56.3615 134.434C57.6347 135.462 58.4307 136.925 58.604 138.554C58.7773 140.182 58.3064 141.78 57.2777 143.053C56.2494 144.327 54.7862 145.124 53.1582 145.297C52.429 145.374 51.6913 145.413 50.9651 145.413C44.4301 145.413 38.52 142.258 35.5416 137.178C33.7979 134.205 33.1377 130.71 33.632 127.073ZM10.9952 158.307C9.863 159.464 8.72003 160.722 7.5663 162.108C6.90724 162.9 6.41702 163.791 6.0912 164.737C5.91493 164.123 5.94684 163.447 6.22999 162.831C10.7881 152.93 18.5255 141.585 27.9527 130.86C28.1672 134.109 29.1068 137.209 30.74 139.995C31.8537 141.894 33.2642 143.591 34.9045 145.051C28.1335 146.832 19.9842 149.188 11.1284 158.171C11.0824 158.214 11.0386 158.26 10.9952 158.307ZM16.1282 169.235C15.8432 169.577 15.4847 169.838 15.0862 170.01C15.016 170.034 14.9474 170.062 14.8795 170.092C14.5945 170.188 14.2924 170.239 13.9829 170.239C13.5246 170.239 12.844 170.127 12.2031 169.594C11.9556 169.388 11.7522 169.144 11.5923 168.876C11.5882 168.869 11.5845 168.862 11.5801 168.855C11.3771 168.508 11.2483 168.119 11.2104 167.706C11.1425 166.965 11.3674 166.241 11.8439 165.669C12.4403 164.953 13.031 164.274 13.6166 163.629C15.1444 164.569 16.6114 165.874 17.784 167.334C17.2381 167.933 16.6867 168.564 16.1282 169.235ZM17.6649 159.626C24.6329 153.499 30.8922 151.856 36.9885 150.258C38.4722 149.87 39.8897 149.495 41.3081 149.059C42.4358 149.531 43.6085 149.923 44.8168 150.226C45.5018 151.165 46.2239 152.073 46.9802 152.95C44.0315 154.173 41.1819 154.922 38.4013 155.65C32.9043 157.09 27.6392 158.474 21.7948 163.435C20.5824 161.991 19.1764 160.695 17.6649 159.626ZM34.3645 172.794C29.7826 172.403 25.6004 171.844 21.8612 171.122C28.2723 164.061 33.4171 162.71 39.8118 161.035C43.2511 160.134 47.0908 159.127 51.1654 157.178C51.4864 157.46 51.8123 157.737 52.1414 158.011C49.2484 161.136 45.255 164.703 39.3194 167.809C37.1114 168.965 35.4292 170.732 34.3645 172.794ZM47.584 183.602C46.696 184.067 45.7423 184.303 44.7496 184.303C42.4573 184.303 40.3736 183.042 39.3119 181.014C37.7448 178.02 38.9056 174.309 41.9 172.742C48.8684 169.095 53.4198 164.901 56.6688 161.309C60.2387 163.581 64.1523 165.362 68.2948 166.588C63.3336 172.585 57.1479 178.596 47.584 183.602ZM80.5049 169.304C79.5861 170.067 78.8149 170.941 78.1926 171.892C75.7152 172.185 73.1042 172.443 70.4245 172.66C71.8168 171.092 73.1123 169.517 74.3436 167.952C74.8175 168.027 75.2929 168.096 75.7709 168.157C77.6523 168.394 79.5193 168.512 81.3662 168.524C81.0912 168.791 80.8074 169.054 80.5049 169.304ZM118.921 132.296C116.477 151.669 97.4331 165.277 76.4678 162.634C69.5714 161.764 63.1459 159.212 57.7642 155.328C57.7616 155.326 57.759 155.323 57.7565 155.322C56.2917 154.264 54.9042 153.107 53.6061 151.858C53.5776 151.829 53.5482 151.802 53.5186 151.774C53.228 151.493 52.9408 151.209 52.6595 150.918C53.0228 150.895 53.3861 150.87 53.7475 150.832C56.854 150.501 59.6461 148.981 61.6092 146.551C63.5719 144.121 64.471 141.071 64.14 137.965C63.8094 134.858 62.2901 132.066 59.8606 130.104C57.6596 128.325 54.9573 127.42 52.1529 127.511C52.3418 127.194 52.5711 126.838 52.8498 126.445C53.7464 125.178 54.371 123.776 54.7083 122.308C63.691 123.163 73.4582 124.319 81.2044 126.092C78.5055 128.862 76.7105 132.453 76.1601 136.325C76.1382 136.44 76.1234 136.556 76.116 136.674C76.028 137.394 75.9802 138.121 75.9802 138.855C75.9802 141.855 76.7123 144.686 78 147.185C78.0535 147.31 78.1143 147.431 78.1845 147.545C79.051 149.139 80.1501 150.588 81.433 151.852C80.6404 151.89 79.8462 151.824 79.1025 151.638C77.3384 151.197 76.0559 150.176 75.2907 148.603C74.6175 147.221 72.952 146.645 71.5701 147.319C70.1877 147.991 69.6129 149.657 70.2853 151.039C71.7623 154.073 74.4141 156.204 77.7529 157.038C78.7919 157.298 79.8781 157.424 80.9717 157.424C83.2618 157.424 85.5737 156.863 87.536 155.828C89.6105 156.649 91.8674 157.105 94.2302 157.105C104.293 157.105 112.48 148.918 112.48 138.855C112.48 138.255 112.442 137.661 112.385 137.07C112.381 136.951 112.37 136.832 112.351 136.713C111.953 133.326 110.62 130.144 108.526 127.508C112.159 126.852 115.971 126.552 119.126 126.337C119.236 128.324 119.17 130.319 118.921 132.296ZM105.281 132.641C105.824 133.606 106.243 134.639 106.519 135.718C98.4778 140.112 88.3057 142.459 82.2928 143.141C81.8746 141.979 81.6212 140.74 81.5614 139.45C87.428 138.809 97.0568 136.557 105.281 132.641ZM82.6573 133.694C83.7201 131.323 85.4987 129.295 87.7743 127.942C89.603 128.587 91.1861 129.292 92.4393 130.07C93.0627 130.456 93.7329 130.738 94.4265 130.92C90.0309 132.316 85.8216 133.225 82.6573 133.694ZM106.528 141.959C105.14 147.457 100.154 151.54 94.2298 151.54C90.9739 151.54 88.0018 150.306 85.7533 148.282C91.6467 147.338 99.5075 145.308 106.528 141.959ZM119.92 120.705C114.953 121.035 108.033 121.502 102.163 123.331C102.054 123.36 101.946 123.393 101.84 123.434C100.219 123.957 98.6785 124.581 97.294 125.345C96.6612 125.695 95.9428 125.692 95.3728 125.339C87.5123 120.464 71.3099 118.274 54.6122 116.708C54.3387 115.663 53.9264 114.673 53.3887 113.758C62.8757 116.933 73.9061 118.905 86.1645 119.571C89.0145 119.726 91.8062 119.803 94.5408 119.803C107.136 119.802 118.452 118.162 128.011 114.977C128.121 116.352 127.91 117.618 127.378 118.524C126.796 119.514 125.821 120.102 124.398 120.322C123.43 120.472 121.803 120.58 119.92 120.705ZM157.304 108.559C149.282 114.783 135.654 123.163 124.744 127.88C124.739 127.22 124.715 126.56 124.676 125.902C124.876 125.877 125.069 125.851 125.249 125.823C129.153 125.22 131.171 123.056 132.176 121.347C133.531 119.045 133.928 116.04 133.352 112.964C134.823 112.336 136.245 111.667 137.612 110.954C144.32 107.457 149.68 102.958 153.616 97.5919C155.468 97.6138 157.233 98.4688 158.39 99.9595C160.461 102.63 159.974 106.487 157.304 108.559Z"/>
</mask>
<path d="M156.797 92.4886C159.538 87.2265 161.117 81.2987 161.47 74.7956C161.855 67.7122 160.787 60.7411 158.372 54.1193C166.681 43.0529 169.563 29.0593 166.27 15.4594C165.231 11.1651 161.747 7.90322 157.393 7.14878C144.145 4.85356 130.79 8.31068 120.467 16.6414C111.712 12.9668 102.108 10.761 92.1075 10.2177C82.1051 9.67445 72.3189 10.8263 63.2186 13.5312C53.8577 4.13104 40.9526 -0.749966 27.5382 0.0939026C23.1289 0.371852 19.3114 3.23707 17.8122 7.3937C13.0659 20.5564 14.4145 34.7797 21.476 46.6815C18.3577 53.0027 16.5405 59.8167 16.1553 66.9002C15.6064 76.9988 18.0839 85.9863 23.5189 93.6119C24.4103 94.864 26.1489 95.1557 27.4006 94.2632C28.6523 93.3711 28.9439 91.6333 28.0518 90.3812C23.3675 83.808 21.2352 76.0091 21.7139 67.2015C23.3638 36.8349 54.8129 13.7647 91.8055 15.7752C101.634 16.3092 111.04 18.5521 119.53 22.2957C119.702 22.3952 119.883 22.4746 120.07 22.5344C125.447 24.9569 130.448 27.9854 134.946 31.5705C134.994 31.611 135.043 31.651 135.093 31.6878C136.285 32.643 137.441 33.6368 138.559 34.6695C144.898 40.5258 149.608 47.2422 152.521 54.4318C152.571 54.6084 152.638 54.781 152.723 54.9461C155.174 61.1968 156.276 67.7956 155.912 74.4935C155.523 81.6471 153.52 87.9001 149.934 93.2175C149.864 93.3084 149.798 93.4019 149.739 93.501C146.269 98.5349 141.365 102.72 135.039 106.018C133.165 106.995 131.177 107.886 129.084 108.692C129.075 108.695 129.066 108.697 129.056 108.701C129.039 108.707 129.023 108.715 129.006 108.722C117.61 113.091 103.067 114.915 86.4677 114.013C67.7292 112.995 52.1192 108.858 40.8976 101.986C40.8268 101.936 40.7533 101.888 40.6765 101.845C40.6709 101.842 40.6653 101.84 40.6594 101.837C39.1854 100.924 37.7849 99.9651 36.4675 98.9576C35.2466 98.0235 33.4999 98.257 32.5658 99.4779C31.6321 100.699 31.8648 102.445 33.0861 103.379C33.9585 104.046 34.8651 104.692 35.7984 105.32C35.1401 107.27 34.9074 109.348 35.1297 111.323C34.6317 111.812 34.1715 112.347 33.76 112.928C31.8637 115.606 30.4231 118.311 29.4438 121.015C17.1283 133.829 6.84044 148.193 1.17346 160.503C-0.640083 164.444 0.823514 169.032 4.57788 171.175C5.44215 171.668 6.39587 172.147 7.41489 172.605C7.77597 173.063 8.18343 173.49 8.64247 173.872C10.1402 175.119 12.0369 175.805 13.9836 175.805C14.6987 175.805 15.4008 175.712 16.0774 175.538C20.9216 176.768 26.6153 177.684 33.0527 178.268C33.0646 180.069 33.4898 181.893 34.3812 183.595C36.4066 187.465 40.38 189.869 44.7503 189.869C46.6247 189.869 48.4976 189.407 50.1661 188.534C55.9678 185.497 60.6083 182.137 64.5033 178.64C68.5308 178.419 72.5334 178.103 76.3012 177.706C76.1549 180.536 77.0259 183.426 78.9738 185.773C81.2033 188.46 84.4856 190.001 87.9791 190.001C90.5003 190.001 92.9028 189.208 94.9275 187.71C96.1629 186.795 96.4226 185.052 95.5079 183.816C94.5931 182.581 92.8497 182.321 91.6151 183.236C90.5564 184.02 89.2991 184.434 87.9791 184.434C86.1467 184.434 84.4259 183.626 83.2577 182.219C81.0998 179.618 81.4597 175.746 84.0604 173.588C86.0053 171.975 87.5483 170.096 88.6783 167.997C93.717 167.226 98.4933 165.631 102.825 163.352C102.401 166.63 101.382 170.449 99.204 174.325C98.4514 175.665 98.9271 177.362 100.267 178.114C100.698 178.357 101.166 178.472 101.628 178.472C102.601 178.472 103.546 177.96 104.057 177.051C107.694 170.578 108.605 164.252 108.648 159.677C116.857 153.527 122.661 144.572 124.289 134.091C136.404 129.328 151.875 119.818 160.718 112.956C165.812 109.003 166.741 101.642 162.789 96.5469C161.244 94.559 159.133 93.1651 156.797 92.4886ZM39.9684 25.0192C33.721 29.6438 28.5973 35.0458 24.7168 41.0015C19.3905 30.2323 20.2429 20.0339 21.7621 13.6329C27.5508 15.2427 34.7987 18.2983 41.2557 24.0904C40.823 24.3954 40.3933 24.7045 39.9684 25.0192ZM46.0807 20.9721C38.6722 13.9057 30.2183 10.2393 23.4974 8.33888C24.4162 6.7903 26.0472 5.76534 27.8885 5.64919C38.7635 4.96415 49.2413 8.54558 57.2558 15.5637C53.3605 17.0689 49.6224 18.8761 46.0807 20.9721ZM136.697 25.8957C133.404 23.4287 129.883 21.227 126.174 19.3084C134.903 13.1998 145.711 10.7747 156.442 12.6343C158.261 12.949 159.771 14.145 160.516 15.7842C153.629 16.9449 144.828 19.6736 136.697 25.8957ZM155.765 48.1224C152.553 41.7812 148.045 35.8559 142.335 30.5815C141.947 30.2227 141.553 29.8687 141.157 29.5184C148.203 24.4603 155.739 22.2082 161.668 21.2348C162.484 27.7631 162.227 37.9942 155.765 48.1224ZM33.632 127.073C34.1151 123.517 35.6864 119.84 38.3033 116.144C39.2489 114.809 40.6583 113.921 42.2714 113.645C42.6203 113.585 42.9698 113.556 43.3168 113.556C44.5744 113.556 45.7987 113.943 46.8463 114.685C48.1826 115.631 49.0699 117.041 49.3456 118.654C49.6213 120.268 49.2521 121.892 48.3062 123.229C46.2551 126.126 45.3638 128.738 45.8621 130.396C45.9404 130.658 46.057 130.906 46.208 131.134C47.1305 132.526 49.5048 133.357 51.8616 133.108C53.49 132.935 55.0879 133.405 56.3615 134.434C57.6347 135.462 58.4307 136.925 58.604 138.554C58.7773 140.182 58.3064 141.78 57.2777 143.053C56.2494 144.327 54.7862 145.124 53.1582 145.297C52.429 145.374 51.6913 145.413 50.9651 145.413C44.4301 145.413 38.52 142.258 35.5416 137.178C33.7979 134.205 33.1377 130.71 33.632 127.073ZM10.9952 158.307C9.863 159.464 8.72003 160.722 7.5663 162.108C6.90724 162.9 6.41702 163.791 6.0912 164.737C5.91493 164.123 5.94684 163.447 6.22999 162.831C10.7881 152.93 18.5255 141.585 27.9527 130.86C28.1672 134.109 29.1068 137.209 30.74 139.995C31.8537 141.894 33.2642 143.591 34.9045 145.051C28.1335 146.832 19.9842 149.188 11.1284 158.171C11.0824 158.214 11.0386 158.26 10.9952 158.307ZM16.1282 169.235C15.8432 169.577 15.4847 169.838 15.0862 170.01C15.016 170.034 14.9474 170.062 14.8795 170.092C14.5945 170.188 14.2924 170.239 13.9829 170.239C13.5246 170.239 12.844 170.127 12.2031 169.594C11.9556 169.388 11.7522 169.144 11.5923 168.876C11.5882 168.869 11.5845 168.862 11.5801 168.855C11.3771 168.508 11.2483 168.119 11.2104 167.706C11.1425 166.965 11.3674 166.241 11.8439 165.669C12.4403 164.953 13.031 164.274 13.6166 163.629C15.1444 164.569 16.6114 165.874 17.784 167.334C17.2381 167.933 16.6867 168.564 16.1282 169.235ZM17.6649 159.626C24.6329 153.499 30.8922 151.856 36.9885 150.258C38.4722 149.87 39.8897 149.495 41.3081 149.059C42.4358 149.531 43.6085 149.923 44.8168 150.226C45.5018 151.165 46.2239 152.073 46.9802 152.95C44.0315 154.173 41.1819 154.922 38.4013 155.65C32.9043 157.09 27.6392 158.474 21.7948 163.435C20.5824 161.991 19.1764 160.695 17.6649 159.626ZM34.3645 172.794C29.7826 172.403 25.6004 171.844 21.8612 171.122C28.2723 164.061 33.4171 162.71 39.8118 161.035C43.2511 160.134 47.0908 159.127 51.1654 157.178C51.4864 157.46 51.8123 157.737 52.1414 158.011C49.2484 161.136 45.255 164.703 39.3194 167.809C37.1114 168.965 35.4292 170.732 34.3645 172.794ZM47.584 183.602C46.696 184.067 45.7423 184.303 44.7496 184.303C42.4573 184.303 40.3736 183.042 39.3119 181.014C37.7448 178.02 38.9056 174.309 41.9 172.742C48.8684 169.095 53.4198 164.901 56.6688 161.309C60.2387 163.581 64.1523 165.362 68.2948 166.588C63.3336 172.585 57.1479 178.596 47.584 183.602ZM80.5049 169.304C79.5861 170.067 78.8149 170.941 78.1926 171.892C75.7152 172.185 73.1042 172.443 70.4245 172.66C71.8168 171.092 73.1123 169.517 74.3436 167.952C74.8175 168.027 75.2929 168.096 75.7709 168.157C77.6523 168.394 79.5193 168.512 81.3662 168.524C81.0912 168.791 80.8074 169.054 80.5049 169.304ZM118.921 132.296C116.477 151.669 97.4331 165.277 76.4678 162.634C69.5714 161.764 63.1459 159.212 57.7642 155.328C57.7616 155.326 57.759 155.323 57.7565 155.322C56.2917 154.264 54.9042 153.107 53.6061 151.858C53.5776 151.829 53.5482 151.802 53.5186 151.774C53.228 151.493 52.9408 151.209 52.6595 150.918C53.0228 150.895 53.3861 150.87 53.7475 150.832C56.854 150.501 59.6461 148.981 61.6092 146.551C63.5719 144.121 64.471 141.071 64.14 137.965C63.8094 134.858 62.2901 132.066 59.8606 130.104C57.6596 128.325 54.9573 127.42 52.1529 127.511C52.3418 127.194 52.5711 126.838 52.8498 126.445C53.7464 125.178 54.371 123.776 54.7083 122.308C63.691 123.163 73.4582 124.319 81.2044 126.092C78.5055 128.862 76.7105 132.453 76.1601 136.325C76.1382 136.44 76.1234 136.556 76.116 136.674C76.028 137.394 75.9802 138.121 75.9802 138.855C75.9802 141.855 76.7123 144.686 78 147.185C78.0535 147.31 78.1143 147.431 78.1845 147.545C79.051 149.139 80.1501 150.588 81.433 151.852C80.6404 151.89 79.8462 151.824 79.1025 151.638C77.3384 151.197 76.0559 150.176 75.2907 148.603C74.6175 147.221 72.952 146.645 71.5701 147.319C70.1877 147.991 69.6129 149.657 70.2853 151.039C71.7623 154.073 74.4141 156.204 77.7529 157.038C78.7919 157.298 79.8781 157.424 80.9717 157.424C83.2618 157.424 85.5737 156.863 87.536 155.828C89.6105 156.649 91.8674 157.105 94.2302 157.105C104.293 157.105 112.48 148.918 112.48 138.855C112.48 138.255 112.442 137.661 112.385 137.07C112.381 136.951 112.37 136.832 112.351 136.713C111.953 133.326 110.62 130.144 108.526 127.508C112.159 126.852 115.971 126.552 119.126 126.337C119.236 128.324 119.17 130.319 118.921 132.296ZM105.281 132.641C105.824 133.606 106.243 134.639 106.519 135.718C98.4778 140.112 88.3057 142.459 82.2928 143.141C81.8746 141.979 81.6212 140.74 81.5614 139.45C87.428 138.809 97.0568 136.557 105.281 132.641ZM82.6573 133.694C83.7201 131.323 85.4987 129.295 87.7743 127.942C89.603 128.587 91.1861 129.292 92.4393 130.07C93.0627 130.456 93.7329 130.738 94.4265 130.92C90.0309 132.316 85.8216 133.225 82.6573 133.694ZM106.528 141.959C105.14 147.457 100.154 151.54 94.2298 151.54C90.9739 151.54 88.0018 150.306 85.7533 148.282C91.6467 147.338 99.5075 145.308 106.528 141.959ZM119.92 120.705C114.953 121.035 108.033 121.502 102.163 123.331C102.054 123.36 101.946 123.393 101.84 123.434C100.219 123.957 98.6785 124.581 97.294 125.345C96.6612 125.695 95.9428 125.692 95.3728 125.339C87.5123 120.464 71.3099 118.274 54.6122 116.708C54.3387 115.663 53.9264 114.673 53.3887 113.758C62.8757 116.933 73.9061 118.905 86.1645 119.571C89.0145 119.726 91.8062 119.803 94.5408 119.803C107.136 119.802 118.452 118.162 128.011 114.977C128.121 116.352 127.91 117.618 127.378 118.524C126.796 119.514 125.821 120.102 124.398 120.322C123.43 120.472 121.803 120.58 119.92 120.705ZM157.304 108.559C149.282 114.783 135.654 123.163 124.744 127.88C124.739 127.22 124.715 126.56 124.676 125.902C124.876 125.877 125.069 125.851 125.249 125.823C129.153 125.22 131.171 123.056 132.176 121.347C133.531 119.045 133.928 116.04 133.352 112.964C134.823 112.336 136.245 111.667 137.612 110.954C144.32 107.457 149.68 102.958 153.616 97.5919C155.468 97.6138 157.233 98.4688 158.39 99.9595C160.461 102.63 159.974 106.487 157.304 108.559Z" fill="white" stroke="#43BE8D" stroke-width="2" mask="url(#path-2-inside-1)"/>
<path d="M128.578 60.3091L128.578 60.3092C128.512 61.5257 127.504 62.4684 126.301 62.4684C126.259 62.4684 126.218 62.4672 126.176 62.4648L126.174 62.4647C124.915 62.3965 123.95 61.3204 124.018 60.0614L124.018 60.0613L124.261 55.5933L124.261 55.5932C124.329 54.3345 125.414 53.368 126.664 53.4374L126.665 53.4374C127.924 53.5059 128.889 54.5821 128.821 55.8411L128.821 55.8412L128.578 60.3091Z" fill="white" stroke="#43BE8D"/>
<path d="M136.475 71.0077L136.475 71.0077C135.214 71.1054 134.119 70.1646 134.023 68.9073L134.023 68.907C133.925 67.65 134.866 66.5521 136.123 66.455L136.123 66.455C138.108 66.3014 141.151 66.4857 144.145 66.8455C147.139 67.2053 150.027 67.7338 151.701 68.2501C152.906 68.6218 153.581 69.8998 153.21 71.1046C152.907 72.0847 152.005 72.7155 151.029 72.7155C150.806 72.7155 150.58 72.6827 150.355 72.6132L150.355 72.613C148.895 72.1628 146.26 71.6989 143.597 71.3793C140.935 71.0598 138.178 70.8764 136.475 71.0077Z" fill="white" stroke="#43BE8D"/>
<path d="M147.948 86.6582L147.948 86.658C148.751 85.6859 148.613 84.2469 147.641 83.4436L147.948 86.6582ZM147.948 86.6582C147.497 87.2046 146.845 87.4877 146.186 87.4877C145.674 87.4877 145.16 87.3168 144.734 86.9653M147.948 86.6582L132.513 80.1923C134.138 80.7199 136.618 81.94 138.957 83.2498C141.297 84.56 143.556 85.9928 144.734 86.9653M144.734 86.9653L144.416 87.3509L144.734 86.9653C144.734 86.9653 144.734 86.9653 144.734 86.9653ZM141.19 79.2663C138.559 77.7929 135.816 76.4629 133.922 75.8483L141.19 79.2663ZM141.19 79.2663C143.821 80.7393 146.29 82.3283 147.641 83.4435L141.19 79.2663ZM132.512 80.1922C131.313 79.8029 130.657 78.5152 131.046 77.3157L132.512 80.1922ZM131.046 77.3156C131.435 76.1162 132.723 75.4596 133.922 75.8482L131.046 77.3156Z" fill="white" stroke="#43BE8D"/>
<path d="M44.5293 65.1992L44.5293 65.1994C44.7398 66.2907 45.6962 67.0504 46.7681 67.0504C46.911 67.0504 47.0569 67.0367 47.2043 67.0085L47.2984 67.4995L47.2037 67.0086C48.7039 66.7191 51.3731 66.5433 54.0549 66.514C56.7358 66.4847 59.4964 66.6011 61.1761 66.9165L61.1762 66.9165C62.4138 67.149 63.6089 66.3333 63.8417 65.0938L63.8418 65.0938C64.0746 63.8546 63.2585 62.6612 62.0195 62.4282L44.5293 65.1992ZM44.5293 65.1992C44.29 63.9613 45.1003 62.7636 46.3385 62.5246C48.0583 62.1927 50.9871 61.9805 54.0019 61.9474M44.5293 65.1992L54.0019 61.9474M54.0019 61.9474C57.0174 61.9142 60.0629 62.0608 62.0194 62.4282L54.0019 61.9474Z" fill="white" stroke="#43BE8D"/>
<path d="M74.7458 57.3838L74.7458 57.3839C74.6797 58.6004 73.6721 59.5431 72.4685 59.5431C72.4249 59.5431 72.3825 59.5422 72.3411 59.5401C71.0824 59.4711 70.1176 58.3951 70.1861 57.1364L70.1861 57.1364L70.4288 52.6684C70.4288 52.6684 70.4288 52.6684 70.4288 52.6684C70.4973 51.4093 71.5775 50.4437 72.8323 50.5124L72.8326 50.5125C74.0917 50.5806 75.057 51.6568 74.9885 52.9158L74.9885 52.9159L74.7458 57.3838Z" fill="white" stroke="#43BE8D"/>
<path d="M99.0723 64.4334L99.0728 64.4334C99.2846 64.4451 99.4955 64.4508 99.7069 64.4508C102.859 64.4508 105.891 63.1758 108.105 60.8977L108.464 61.2462L108.105 60.8977C108.984 59.9936 108.963 58.5479 108.059 57.6692C107.154 56.7901 105.709 56.8114 104.83 57.7152C103.389 59.1988 101.377 59.9846 99.3201 59.874L99.3197 59.874C97.259 59.7618 95.3478 58.7616 94.0751 57.1307L94.075 57.1306C93.2993 56.136 91.8643 55.9592 90.8708 56.7348L90.8706 56.7349C89.8764 57.5106 89.6992 58.9454 90.4749 59.9396M99.0723 64.4334L90.4749 59.9396M99.0723 64.4334C95.6934 64.2497 92.56 62.6121 90.4749 59.9396M99.0723 64.4334L90.0807 60.2472L90.4749 59.9396" fill="white" stroke="#43BE8D"/>
</svg>
