<svg width="11" height="15" viewBox="0 0 11 15" fill="none" xmlns="http://www.w3.org/2000/svg">
<path d="M5.09961 0.429688C2.28025 0.429688 0 2.70994 0 5.5293C0 9.354 5.09961 15 5.09961 15C5.09961 15 10.1992 9.354 10.1992 5.5293C10.1992 2.70994 7.91896 0.429688 5.09961 0.429688ZM1.45703 5.5293C1.45703 3.51859 3.08891 1.88672 5.09961 1.88672C7.11031 1.88672 8.74219 3.51859 8.74219 5.5293C8.74219 7.62742 6.64406 10.7673 5.09961 12.727C3.5843 10.7819 1.45703 7.60557 1.45703 5.5293Z" fill="#77838F"/>
<path d="M5.09961 7.3501C6.10548 7.3501 6.9209 6.53468 6.9209 5.52881C6.9209 4.52294 6.10548 3.70752 5.09961 3.70752C4.09374 3.70752 3.27832 4.52294 3.27832 5.52881C3.27832 6.53468 4.09374 7.3501 5.09961 7.3501Z" fill="#77838F"/>
</svg>
