<svg width="20" height="21" viewBox="0 0 20 21" fill="none" xmlns="http://www.w3.org/2000/svg">
<path fill-rule="evenodd" clip-rule="evenodd" d="M10.5613 1.29412H9.91424H9.26718V0H10.5613V1.29412ZM9.91424 1.29412C5.99047 1.29412 2.79659 4.55788 2.79659 8.57094V12.8312C2.79659 15.2041 1.15583 16.925 1.0927 16.9912L1.09094 16.9931L0 18.0969H19.8738L18.7298 16.9853C18.7116 16.9685 17.0319 15.3107 17.0319 12.8312V8.57094C17.0319 4.55788 13.838 1.29412 9.91424 1.29412ZM4.09071 12.8312C4.09071 14.52 3.43847 15.9073 2.86388 16.8028H16.9516C16.3784 15.9151 15.7378 14.5394 15.7378 12.8312V8.57094C15.7378 5.27224 13.1249 2.58824 9.91424 2.58824C6.70353 2.58824 4.09071 5.27224 4.09071 8.57094V12.8312ZM11.8554 18.1176H10.5613C10.5613 18.4748 10.2701 18.7647 9.91424 18.7647C9.55835 18.7647 9.26718 18.4748 9.26718 18.1176H7.97306C7.97306 19.1879 8.844 20.0588 9.91424 20.0588C10.9845 20.0588 11.8554 19.1879 11.8554 18.1176Z" fill="#43BE8D"/>
</svg>
