<svg width="18" height="22" viewBox="0 0 18 22" fill="none" xmlns="http://www.w3.org/2000/svg">
<path d="M17 8H15V6C15 4.4087 14.3679 2.88258 13.2426 1.75736C12.1174 0.632141 10.5913 0 9 0C7.4087 0 5.88258 0.632141 4.75736 1.75736C3.63214 2.88258 3 4.4087 3 6V8H1C0.734784 8 0.48043 8.10536 0.292893 8.29289C0.105357 8.48043 0 8.73478 0 9V21C0 21.2652 0.105357 21.5196 0.292893 21.7071C0.48043 21.8946 0.734784 22 1 22H17C17.2652 22 17.5196 21.8946 17.7071 21.7071C17.8946 21.5196 18 21.2652 18 21V9C18 8.73478 17.8946 8.48043 17.7071 8.29289C17.5196 8.10536 17.2652 8 17 8ZM5 6C5 4.93913 5.42143 3.92172 6.17157 3.17157C6.92172 2.42143 7.93913 2 9 2C10.0609 2 11.0783 2.42143 11.8284 3.17157C12.5786 3.92172 13 4.93913 13 6V8H5V6ZM16 20H2V10H16V20Z" fill="#43BE8D"/>
<path d="M9 12C8.40666 12 7.82664 12.1759 7.33329 12.5056C6.83994 12.8352 6.45543 13.3038 6.22836 13.8519C6.0013 14.4001 5.94189 15.0033 6.05765 15.5853C6.1734 16.1672 6.45912 16.7018 6.87868 17.1213C7.29824 17.5409 7.83279 17.8266 8.41473 17.9424C8.99667 18.0581 9.59987 17.9987 10.1481 17.7716C10.6962 17.5446 11.1648 17.1601 11.4944 16.6667C11.8241 16.1734 12 15.5933 12 15C12 14.2044 11.6839 13.4413 11.1213 12.8787C10.5587 12.3161 9.79565 12 9 12ZM9 16C8.80222 16 8.60888 15.9414 8.44443 15.8315C8.27998 15.7216 8.15181 15.5654 8.07612 15.3827C8.00043 15.2 7.98063 14.9989 8.01922 14.8049C8.0578 14.6109 8.15304 14.4327 8.2929 14.2929C8.43275 14.153 8.61093 14.0578 8.80491 14.0192C8.99889 13.9806 9.19996 14.0004 9.38269 14.0761C9.56541 14.1518 9.72159 14.28 9.83147 14.4444C9.94135 14.6089 10 14.8022 10 15C10 15.2652 9.89465 15.5196 9.70711 15.7071C9.51957 15.8946 9.26522 16 9 16Z" fill="#43BE8D"/>
</svg>
