<svg width="56" height="56" viewBox="0 0 56 56" fill="none" xmlns="http://www.w3.org/2000/svg">
<circle cx="28" cy="28" r="28" fill="#43BE8D"/>
<g clip-path="url(#clip0)">
<path d="M38.8677 17.0648C38.7519 16.9633 38.5872 16.9397 38.4476 17.0045L13.2249 28.7237C13.0891 28.7868 13.0017 28.9223 13 29.072C12.9984 29.2217 13.083 29.359 13.2174 29.425L20.3554 32.928C20.4863 32.9923 20.6424 32.9778 20.7593 32.8904L27.6994 27.7033L22.2511 33.3075C22.1734 33.3875 22.1338 33.497 22.1423 33.6082L22.6848 40.6728C22.6968 40.8293 22.8018 40.9632 22.9509 41.0122C22.9908 41.0253 23.0317 41.0316 23.0722 41.0316C23.1833 41.0316 23.2914 40.984 23.3665 40.8969L27.1551 36.5067L31.8386 38.7445C31.9403 38.7931 32.058 38.7951 32.1613 38.7502C32.2646 38.7052 32.3432 38.6176 32.377 38.5102L38.9821 17.4734C39.0283 17.3265 38.9833 17.1663 38.8677 17.0648Z" fill="white"/>
</g>
<defs>
<clipPath id="clip0">
<rect width="26" height="26" fill="white" transform="translate(13 16)"/>
</clipPath>
</defs>
</svg>
