<svg width="28" height="36" viewBox="0 0 28 36" fill="none" xmlns="http://www.w3.org/2000/svg">
<path d="M17.754 17.996C18.034 18.2107 18.328 18.4767 18.636 18.794C18.9533 19.1113 19.2613 19.4567 19.56 19.83C19.868 20.194 20.1573 20.5673 20.428 20.95C20.6986 21.3233 20.9273 21.6733 21.114 22H19.588C19.392 21.6733 19.1633 21.342 18.902 21.006C18.65 20.6607 18.384 20.334 18.104 20.026C17.824 19.7087 17.5393 19.4193 17.25 19.158C16.9606 18.8967 16.6853 18.6773 16.424 18.5V22H15.122V11.36L16.424 11.136V17.772C16.648 17.548 16.8953 17.3007 17.166 17.03C17.4366 16.7593 17.7026 16.484 17.964 16.204C18.2253 15.924 18.4726 15.658 18.706 15.406C18.9393 15.1447 19.14 14.916 19.308 14.72H20.834C20.6193 14.9533 20.386 15.21 20.134 15.49C19.882 15.77 19.6206 16.0547 19.35 16.344C19.0793 16.624 18.804 16.9087 18.524 17.198C18.2533 17.478 17.9966 17.744 17.754 17.996ZM26.5903 21.272C26.4783 21.3467 26.2589 21.4447 25.9323 21.566C25.6149 21.678 25.2416 21.734 24.8123 21.734C24.3736 21.734 23.9583 21.664 23.5663 21.524C23.1836 21.384 22.8476 21.1693 22.5583 20.88C22.2689 20.5813 22.0403 20.2127 21.8723 19.774C21.7043 19.3353 21.6203 18.8127 21.6203 18.206C21.6203 17.674 21.6996 17.1887 21.8583 16.75C22.0169 16.302 22.2456 15.9193 22.5443 15.602C22.8523 15.2753 23.2256 15.0233 23.6643 14.846C24.1029 14.6593 24.5976 14.566 25.1483 14.566C25.7549 14.566 26.2823 14.6127 26.7303 14.706C27.1876 14.79 27.5703 14.8693 27.8783 14.944V21.44C27.8783 22.56 27.5889 23.372 27.0103 23.876C26.4316 24.38 25.5543 24.632 24.3783 24.632C23.9209 24.632 23.4869 24.5947 23.0763 24.52C22.6749 24.4453 22.3249 24.3567 22.0263 24.254L22.2643 23.12C22.5256 23.2227 22.8429 23.3113 23.2163 23.386C23.5989 23.47 23.9956 23.512 24.4062 23.512C25.1809 23.512 25.7363 23.358 26.0723 23.05C26.4176 22.742 26.5903 22.252 26.5903 21.58V21.272ZM26.5763 15.868C26.4456 15.8307 26.2683 15.798 26.0443 15.77C25.8296 15.7327 25.5356 15.714 25.1623 15.714C24.4623 15.714 23.9209 15.9427 23.5383 16.4C23.1649 16.8573 22.9783 17.464 22.9783 18.22C22.9783 18.64 23.0296 18.9993 23.1323 19.298C23.2443 19.5967 23.3889 19.844 23.5663 20.04C23.7529 20.236 23.9629 20.3807 24.1963 20.474C24.4389 20.5673 24.6863 20.614 24.9383 20.614C25.2836 20.614 25.6009 20.5673 25.8903 20.474C26.1796 20.3713 26.4083 20.2547 26.5763 20.124V15.868Z" fill="#616161"/>
<line x1="0.5" y1="2.18557e-08" x2="0.499998" y2="36" stroke="#E0E0E0"/>
</svg>
